<?xml version="1.0" encoding="UTF-8"?>
<svg id="Layer_1" data-name="Layer 1" xmlns="http://www.w3.org/2000/svg" viewBox="0 0 505 505">
  <defs>
    <style>
      .cls-1 {
        fill: #fff;
        stroke-width: 0px;
      }
    </style>
  </defs>
  <path class="cls-1" d="m245.66,380.14c-42.12,0-75.96-21.96-92.16-56.88l42.84-30.24c14.04,21.24,27,30.24,46.8,30.24s34.2-9.72,34.2-26.64-13.32-24.12-41.04-24.12h-56.52v-134.28h147.24v55.8h-88.56v27.72c9-1.8,16.56-2.52,22.68-2.52,38.88-.72,80.64,29.88,79.56,76.68,0,48.6-41.4,84.24-95.04,84.24Z"/>
  <path class="cls-1" d="m252.5,505c-67.45,0-130.85-26.26-178.54-73.96C26.26,383.35,0,319.95,0,252.5S26.26,121.65,73.96,73.96C121.65,26.26,185.05,0,252.5,0s130.85,26.26,178.54,73.96c47.69,47.69,73.96,111.1,73.96,178.54s-26.26,130.85-73.96,178.54c-47.69,47.69-111.1,73.96-178.54,73.96Zm0-499C116.58,6,6,116.58,6,252.5s110.58,246.5,246.5,246.5,246.5-110.58,246.5-246.5S388.42,6,252.5,6Z"/>
</svg>