<?xml version="1.0" encoding="UTF-8"?>
<svg id="Layer_1" data-name="Layer 1" xmlns="http://www.w3.org/2000/svg" viewBox="0 0 505 505">
  <defs>
    <style>
      .cls-1 {
        fill: #fff;
        stroke-width: 0px;
      }
    </style>
  </defs>
  <path class="cls-1" d="m252.5,505c-67.45,0-130.85-26.26-178.54-73.96C26.26,383.35,0,319.95,0,252.5S26.26,121.65,73.96,73.96C121.65,26.26,185.05,0,252.5,0s130.85,26.26,178.54,73.96c47.69,47.69,73.96,111.1,73.96,178.54s-26.26,130.85-73.96,178.54c-47.69,47.69-111.1,73.96-178.54,73.96Zm0-499C116.58,6,6,116.58,6,252.5s110.58,246.5,246.5,246.5,246.5-110.58,246.5-246.5S388.42,6,252.5,6Z"/>
  <path class="cls-1" d="m341.96,323.98v51.84l-181.8.36v-12.6l85.32-93.24c20.16-21.96,28.44-37.08,28.44-52.56,0-16.92-10.08-27-24.84-27s-24.48,10.08-24.48,28.44c0,4.68.36,9.72,1.44,15.84h-62.28c-1.8-6.84-2.52-13.32-2.52-20.16-.72-40.32,36.36-82.08,88.92-81,49.32,0,87.12,33.12,87.12,78.12,0,32.76-17.64,58.32-51.84,94.32l-16.92,17.64h73.44Z"/>
</svg>