<?xml version="1.0" encoding="UTF-8"?>
<svg id="Layer_1" data-name="Layer 1" xmlns="http://www.w3.org/2000/svg" viewBox="0 0 505 505">
  <defs>
    <style>
      .cls-1 {
        fill: #fff;
        stroke-width: 0px;
      }
    </style>
  </defs>
  <path class="cls-1" d="m252.5,505c-67.45,0-130.85-26.26-178.54-73.96C26.26,383.35,0,319.95,0,252.5S26.26,121.65,73.96,73.96C121.65,26.26,185.05,0,252.5,0s130.85,26.26,178.54,73.96c47.69,47.69,73.96,111.1,73.96,178.54s-26.26,130.85-73.96,178.54c-47.69,47.69-111.1,73.96-178.54,73.96Zm0-499C116.58,6,6,116.58,6,252.5s110.58,246.5,246.5,246.5,246.5-110.58,246.5-246.5S388.42,6,252.5,6Z"/>
  <path class="cls-1" d="m245.48,380.14c-41.4,0-74.16-21.96-90.36-56.88l42.84-30.24c14.04,21.24,26.64,30.24,45,30.24s32.04-9.36,32.04-26.28-13.32-24.48-41.04-24.48h-33.84v-15.84l42.12-62.64h-67.68v-55.8h160.2v16.2l-47.16,70.2c29.16,11.16,50.76,37.08,50.76,72,0,47.88-40.68,83.52-92.88,83.52Z"/>
</svg>