<?xml version="1.0" encoding="UTF-8"?>
<svg id="Layer_1" data-name="Layer 1" xmlns="http://www.w3.org/2000/svg" viewBox="0 0 505 505">
  <defs>
    <style>
      .cls-1 {
        fill: #fff;
        stroke-width: 0px;
      }
    </style>
  </defs>
  <path class="cls-1" d="m252.5,505c-67.45,0-130.85-26.26-178.54-73.96C26.26,383.35,0,319.95,0,252.5S26.26,121.65,73.96,73.96C121.65,26.26,185.05,0,252.5,0s130.85,26.26,178.54,73.96c47.69,47.69,73.96,111.1,73.96,178.54s-26.26,130.85-73.96,178.54c-47.69,47.69-111.1,73.96-178.54,73.96Zm0-499C116.58,6,6,116.58,6,252.5s110.58,246.5,246.5,246.5,246.5-110.58,246.5-246.5S388.42,6,252.5,6Z"/>
  <path class="cls-1" d="m356.54,340.54h-27.72v35.28h-61.92v-35.28h-117.36v-16.2l70.92-186.12h63.72l-57.96,150.48h40.68v-58.32h61.92v58.32h27.72v51.84Z"/>
</svg>